<svg width="20" height="15" viewBox="0 0 20 15" fill="none" xmlns="http://www.w3.org/2000/svg">
<path d="M7.17704 14.0397C7.28652 13.9311 7.34683 13.7867 7.34683 13.6332C7.34683 13.4797 7.28656 13.3352 7.17695 13.2266L1.98051 8.07488L19.1402 8.07488C19.46 8.07488 19.7202 7.81699 19.7202 7.49988C19.7202 7.18283 19.46 6.92488 19.1402 6.92488L1.98051 6.92488L7.17704 1.77311C7.28652 1.66453 7.34683 1.52011 7.34683 1.36657C7.34683 1.21302 7.28656 1.0686 7.17695 0.959977C7.06743 0.851401 6.9218 0.791565 6.76687 0.791565C6.61195 0.791565 6.46632 0.851401 6.35679 0.959977L0.170055 7.0933C0.089037 7.17371 0.0351144 7.27366 0.0124589 7.38241C0.0123235 7.383 0.0121404 7.38363 0.0119592 7.38426C0.00869759 7.40029 0.00638588 7.4166 0.00448235 7.43295C0.00411995 7.43587 0.00353249 7.4387 0.00321396 7.44167C0.00122078 7.46089 0.00022324 7.48034 0.00022324 7.49993C0.00022324 7.51952 0.00122078 7.53897 0.00321396 7.55819C0.00353249 7.56116 0.00416573 7.56403 0.00448235 7.56695C0.00638588 7.58335 0.00869759 7.59957 0.0119592 7.61556C0.0120946 7.6161 0.0122777 7.61659 0.0124131 7.61722C0.0350686 7.72602 0.0889455 7.82606 0.170055 7.90647L6.3567 14.0398C6.46627 14.1485 6.6119 14.2083 6.76683 14.2083C6.92175 14.2083 7.06743 14.1484 7.17704 14.0397Z" fill="white"/>
</svg>
