<svg width="18" height="43" viewBox="0 0 18 43" fill="none" xmlns="http://www.w3.org/2000/svg">
<path d="M0 17.0001V26.0001C0 30.9501 4.05 35.0001 9 35.0001C13.95 35.0001 18 30.9501 18 26.0001V17.0001C18 12.0501 13.95 8.00006 9 8.00006C4.05 8.00006 0 12.0501 0 17.0001ZM9 10.0001C12.85 10.0001 16 13.1501 16 17.0001V26.0001C16 29.8501 12.85 33.0001 9 33.0001C5.15 33.0001 2 29.8501 2 26.0001V17.0001C2 13.1501 5.15 10.0001 9 10.0001Z" fill="#2B2A29"/>
<path d="M9 18.5001C9.55 18.5001 10 18.0501 10 17.5001V14.5001C10 13.9501 9.55 13.5001 9 13.5001C8.45 13.5001 8 13.9501 8 14.5001V17.5001C8 18.0501 8.45 18.5001 9 18.5001Z" fill="#2B2A29"/>
<path d="M8.3 42.7C8.5 42.9 8.75 43 9 43C9.25 43 9.5 42.9 9.7 42.7L12.2 40.2C12.6 39.8 12.6 39.2 12.2 38.8C11.8 38.4 11.2 38.4 10.8 38.8L9 40.6L7.2 38.8C6.8 38.4 6.2 38.4 5.8 38.8C5.4 39.2 5.4 39.8 5.8 40.2L8.3 42.7Z" fill="#2B2A29"/>
<path d="M8.3 0.300003L5.8 2.80003C5.4 3.20004 5.4 3.80004 5.8 4.20005C6 4.40005 6.25 4.50005 6.5 4.50005C6.75 4.50005 7 4.40005 7.2 4.20005L9 2.40003L10.8 4.20005C11 4.40005 11.25 4.50005 11.5 4.50005C11.75 4.50005 12 4.40005 12.2 4.20005C12.6 3.80004 12.6 3.20004 12.2 2.80003L9.7 0.300003C9.3 -0.100001 8.7 -0.100001 8.3 0.300003Z" fill="#2B2A29"/>
</svg>
