<svg width="172" height="88" viewBox="0 0 172 88" fill="none" xmlns="http://www.w3.org/2000/svg">
<path d="M1 81.6494H5.64423V87.8514H4.98765V82.2412H1.65055V87.8514H1V81.6494Z" fill="#201600"/>
<path d="M7.23446 81.6476H8.54159C9.28852 81.6476 9.79451 81.6778 10.0535 81.7382C10.427 81.8227 10.7342 82.0039 10.9691 82.2756C11.204 82.5474 11.3245 82.8856 11.3245 83.2962C11.3245 83.7069 11.2101 84.0511 10.9751 84.3168C10.7462 84.5825 10.427 84.7637 10.0174 84.8603C9.72222 84.9267 9.16203 84.963 8.34883 84.963H7.87899V87.8435H7.22241V81.6476H7.23446ZM7.89104 82.2575V84.3591L8.99939 84.3711C9.44514 84.3711 9.77644 84.3349 9.98124 84.2564C10.1921 84.1779 10.3547 84.0571 10.4692 83.882C10.5896 83.7069 10.6499 83.5196 10.6499 83.3022C10.6499 83.0969 10.5896 82.9037 10.4692 82.7346C10.3487 82.5595 10.1921 82.4387 9.99931 82.3662C9.80656 82.2937 9.4873 82.2575 9.04155 82.2575H7.89104Z" fill="#201600"/>
<path d="M15.7581 81.49C16.752 81.49 17.5833 81.804 18.2519 82.4321C18.9205 83.0601 19.2579 83.8271 19.2579 84.745C19.2579 85.6508 18.9266 86.4238 18.2579 87.0519C17.5893 87.6799 16.7761 88 15.8184 88C14.8486 88 14.0233 87.6859 13.3547 87.0579C12.6861 86.4298 12.3488 85.6689 12.3488 84.7752C12.3488 84.1773 12.4993 83.6278 12.8066 83.1205C13.1138 82.6132 13.5294 82.2147 14.0534 81.9248C14.5775 81.6349 15.1497 81.49 15.7581 81.49ZM15.7883 82.0939C15.3003 82.0939 14.8425 82.2147 14.4088 82.4502C13.9751 82.6917 13.6378 83.0118 13.3908 83.4164C13.1499 83.821 13.0234 84.2739 13.0234 84.7691C13.0234 85.5059 13.2945 86.1279 13.8306 86.6352C14.3727 87.1424 15.0233 87.3961 15.7822 87.3961C16.2882 87.3961 16.7641 87.2813 17.1918 87.0458C17.6255 86.8103 17.9628 86.4963 18.2037 86.0917C18.4447 85.6871 18.5652 85.2341 18.5652 84.745C18.5652 84.2558 18.4447 83.8089 18.2037 83.4104C17.9628 83.0118 17.6194 82.6917 17.1797 82.4562C16.752 82.2147 16.2822 82.0939 15.7883 82.0939Z" fill="#201600"/>
<path d="M20.5768 81.6476H24.3355V82.2515H21.2334V84.196H24.3054V84.7999H21.2334V87.2336H24.3054V87.8375H20.5768V81.6476Z" fill="#201600"/>
<path d="M25.462 81.6476H26.1306V83.9726L28.7509 81.6476H29.6303L26.48 84.4255L29.8713 87.8435H28.9978L26.1246 84.9569V87.8435H25.4559V81.6476H25.462Z" fill="#201600"/>
<path d="M30.2025 82.2576V81.6537H33.7926V82.2576H32.3289V87.8496H31.6602V82.2576H30.2025Z" fill="#201600"/>
<path d="M39.8946 87.8496H39.2139V83.097L34.8949 87.8496H34.7504V81.6537H35.4069V86.4848L39.756 81.6537H39.9006V87.8496H39.8946Z" fill="#201600"/>
<path d="M41.4849 81.6476H42.786C43.5329 81.6476 44.0389 81.6778 44.2979 81.7382C44.6714 81.8227 44.9786 82.0039 45.2135 82.2756C45.4484 82.5474 45.5689 82.8856 45.5689 83.2962C45.5689 83.7069 45.4545 84.0511 45.2195 84.3168C44.9906 84.5825 44.6714 84.7637 44.2618 84.8603C43.9666 84.9267 43.4064 84.963 42.5932 84.963H42.1234V87.8435H41.4668V81.6476H41.4849ZM42.1354 82.2575V84.3591L43.2438 84.3711C43.6895 84.3711 44.0208 84.3349 44.2256 84.2564C44.4365 84.1779 44.5991 84.0571 44.7135 83.882C44.834 83.7069 44.8943 83.5196 44.8943 83.3022C44.8943 83.0969 44.834 82.9037 44.7135 82.7346C44.5931 82.5595 44.4365 82.4387 44.2437 82.3662C44.0509 82.2937 43.7317 82.2575 43.2859 82.2575H42.1354Z" fill="#201600"/>
<path d="M50.0084 81.49C51.0023 81.49 51.8335 81.804 52.5022 82.4321C53.1708 83.0601 53.5081 83.8271 53.5081 84.745C53.5081 85.6508 53.1768 86.4238 52.5082 87.0519C51.8396 87.6799 51.0264 88 50.0686 88C49.0988 88 48.2736 87.6859 47.6049 87.0579C46.9363 86.4298 46.599 85.6689 46.599 84.7752C46.599 84.1773 46.7496 83.6278 47.0568 83.1205C47.364 82.6132 47.7796 82.2147 48.3037 81.9248C48.8277 81.6349 49.394 81.49 50.0084 81.49ZM50.0385 82.0939C49.5506 82.0939 49.0928 82.2147 48.6591 82.4502C48.2254 82.6917 47.8881 83.0118 47.6411 83.4164C47.4001 83.821 47.2736 84.2739 47.2736 84.7691C47.2736 85.5059 47.5447 86.1279 48.0808 86.6352C48.6229 87.1424 49.2735 87.3961 50.0325 87.3961C50.5385 87.3961 51.0143 87.2813 51.442 87.0458C51.8757 86.8103 52.213 86.4963 52.454 86.0917C52.6949 85.6871 52.8154 85.2341 52.8154 84.745C52.8154 84.2558 52.6949 83.8089 52.454 83.4104C52.213 83.0118 51.8697 82.6917 51.43 82.4562C50.9963 82.2147 50.5324 82.0939 50.0385 82.0939Z" fill="#201600"/>
<path d="M54.8334 81.6476H56.1224C56.6405 81.6476 57.044 81.708 57.3211 81.8227C57.5982 81.9374 57.8211 82.1186 57.9837 82.3602C58.1464 82.6017 58.2247 82.8674 58.2247 83.1634C58.2247 83.4411 58.1524 83.6887 58.0139 83.9182C57.8693 84.1417 57.6645 84.3289 57.3874 84.4678C57.7307 84.5765 57.9898 84.7033 58.1765 84.8543C58.3572 84.9992 58.5018 85.1804 58.6042 85.3917C58.7066 85.6031 58.7548 85.8265 58.7548 86.0741C58.7548 86.5693 58.562 86.992 58.1765 87.3363C57.791 87.6805 57.2729 87.8496 56.6284 87.8496H54.8334V81.6476ZM55.4779 82.2575V84.2443H55.8514C56.3092 84.2443 56.6405 84.2021 56.8573 84.1236C57.0742 84.045 57.2428 83.9182 57.3693 83.7431C57.4958 83.568 57.5561 83.3808 57.5561 83.1694C57.5561 82.8856 57.4537 82.6621 57.2428 82.4991C57.032 82.336 56.7007 82.2575 56.2429 82.2575H55.4779ZM55.4779 84.8663V87.2457H56.2911C56.773 87.2457 57.1224 87.2034 57.3452 87.1128C57.5681 87.0222 57.7488 86.8833 57.8813 86.6961C58.0139 86.5089 58.0861 86.3036 58.0861 86.0862C58.0861 85.8084 57.9898 85.5729 57.803 85.3676C57.6103 85.1622 57.3513 85.0234 57.02 84.9448C56.7971 84.8965 56.4055 84.8663 55.8574 84.8663H55.4779Z" fill="#201600"/>
<path d="M62.7363 81.6476L65.7903 87.8435H65.0855L64.0555 85.8024H61.2304L60.2124 87.8435H59.4835L62.5797 81.6476H62.7363ZM62.652 82.9641L61.5316 85.2106H63.7724L62.652 82.9641Z" fill="#201600"/>
<path d="M66.7963 81.6476H67.4528V84.2443H70.7899V81.6476H71.4465V87.8496H70.7899V84.8603H67.4528V87.8496H66.7963V81.6476Z" fill="#201600"/>
<path d="M78.1931 87.8496H77.5125V83.097L73.1935 87.8496H73.049V81.6537H73.7055V86.4848L78.0546 81.6537H78.1992V87.8496H78.1931Z" fill="#201600"/>
<path d="M79.7954 81.6476H83.5542V82.2515H80.452V84.196H83.5241V84.7999H80.452V87.2336H83.5241V87.8375H79.7954V81.6476Z" fill="#201600"/>
<path d="M92.3607 87.8496H91.68V83.097L87.361 87.8496H87.2164V81.6537H87.873V86.4848L92.2221 81.6537H92.3667V87.8496H92.3607Z" fill="#201600"/>
<path d="M102.589 82.8004L102.071 83.1749C101.788 82.8246 101.444 82.5589 101.047 82.3777C100.649 82.1966 100.21 82.106 99.7276 82.106C99.2036 82.106 98.7217 82.2267 98.2759 82.4623C97.8302 82.6978 97.4868 83.0178 97.2398 83.4164C96.9929 83.815 96.8724 84.2679 96.8724 84.7691C96.8724 85.524 97.1435 86.1581 97.6916 86.6593C98.2398 87.1666 98.9325 87.4202 99.7638 87.4202C100.679 87.4202 101.45 87.082 102.065 86.3996L102.583 86.768C102.258 87.1606 101.848 87.4625 101.36 87.6799C100.872 87.8973 100.324 88 99.7216 88C98.5771 88 97.6736 87.6376 97.0109 86.919C96.4568 86.3091 96.1797 85.5723 96.1797 84.7087C96.1797 83.8029 96.517 83.036 97.1917 82.42C97.8663 81.798 98.7096 81.49 99.7216 81.49C100.336 81.49 100.884 81.6047 101.378 81.8342C101.872 82.0637 102.276 82.3838 102.589 82.8004Z" fill="#201600"/>
<path d="M103.251 82.2576V81.6537H106.841V82.2576H105.378V87.8496H104.709V82.2576H103.251Z" fill="#201600"/>
<path d="M107.781 81.6476H109.088C109.835 81.6476 110.341 81.6778 110.6 81.7382C110.974 81.8227 111.281 82.0039 111.516 82.2756C111.751 82.5474 111.871 82.8856 111.871 83.2962C111.871 83.7069 111.757 84.0511 111.522 84.3168C111.293 84.5825 110.974 84.7637 110.564 84.8603C110.269 84.9267 109.709 84.963 108.896 84.963H108.426V87.8435H107.781V81.6476ZM108.438 82.2575V84.3591L109.546 84.3711C109.992 84.3711 110.323 84.3349 110.528 84.2564C110.739 84.1779 110.902 84.0571 111.016 83.882C111.137 83.7069 111.197 83.5196 111.197 83.3022C111.197 83.0969 111.137 82.9037 111.016 82.7346C110.896 82.5595 110.739 82.4387 110.546 82.3662C110.353 82.2937 110.034 82.2575 109.588 82.2575H108.438Z" fill="#201600"/>
<path d="M116.311 81.49C117.305 81.49 118.136 81.804 118.805 82.4321C119.473 83.0601 119.811 83.8271 119.811 84.745C119.811 85.6508 119.479 86.4238 118.811 87.0519C118.142 87.6799 117.329 88 116.371 88C115.401 88 114.576 87.6859 113.907 87.0579C113.239 86.4298 112.901 85.6689 112.901 84.7752C112.901 84.1773 113.052 83.6278 113.359 83.1205C113.666 82.6132 114.082 82.2147 114.606 81.9248C115.13 81.6349 115.696 81.49 116.311 81.49ZM116.335 82.0939C115.847 82.0939 115.389 82.2147 114.955 82.4502C114.522 82.6917 114.184 83.0118 113.937 83.4164C113.69 83.821 113.57 84.2739 113.57 84.7691C113.57 85.5059 113.841 86.1279 114.377 86.6352C114.919 87.1424 115.57 87.3961 116.329 87.3961C116.835 87.3961 117.311 87.2813 117.738 87.0458C118.172 86.8103 118.509 86.4963 118.75 86.0917C118.991 85.6871 119.112 85.2341 119.112 84.745C119.112 84.2558 118.991 83.8089 118.75 83.4104C118.509 83.0118 118.166 82.6917 117.726 82.4562C117.299 82.2147 116.829 82.0939 116.335 82.0939Z" fill="#201600"/>
<path d="M126.274 87.8496H125.593V83.097L121.274 87.8496H121.13V81.6537H121.786V86.4848L126.135 81.6537H126.28V87.8496H126.274Z" fill="#201600"/>
<path d="M127.219 82.2576V81.6537H130.81V82.2576H129.346V87.8496H128.677V82.2576H127.219Z" fill="#201600"/>
<path d="M131.755 81.6476H135.514V82.2515H132.412V84.196H135.484V84.7999H132.412V87.2336H135.484V87.8375H131.755V81.6476Z" fill="#201600"/>
<path d="M141.953 87.8496H141.242L139.068 83.0608L136.863 87.8496H136.152L139.002 81.6537H139.146L141.953 87.8496Z" fill="#201600"/>
<path d="M143.05 81.6476H143.706V84.3047H144.176C145.031 84.3047 145.652 84.347 146.025 84.4255C146.399 84.504 146.7 84.6852 146.929 84.969C147.158 85.2528 147.272 85.6152 147.272 86.062C147.272 86.5029 147.164 86.8652 146.941 87.1491C146.718 87.4389 146.435 87.6261 146.092 87.7107C145.748 87.8013 145.17 87.8435 144.357 87.8435H143.05V81.6476ZM143.7 87.2457H144.399C145.134 87.2457 145.616 87.2155 145.839 87.1491C146.062 87.0826 146.242 86.9618 146.375 86.7807C146.507 86.5995 146.574 86.37 146.574 86.0922C146.574 85.7843 146.489 85.5306 146.327 85.3374C146.158 85.1441 145.947 85.0233 145.694 84.9811C145.435 84.9388 144.959 84.9146 144.254 84.9146H143.7V87.2457Z" fill="#201600"/>
<path d="M154.687 82.8004L154.169 83.1749C153.886 82.8246 153.543 82.5589 153.145 82.3777C152.748 82.1966 152.308 82.106 151.826 82.106C151.302 82.106 150.82 82.2267 150.374 82.4623C149.929 82.6978 149.585 83.0178 149.338 83.4164C149.091 83.815 148.971 84.2679 148.971 84.7691C148.971 85.524 149.242 86.1581 149.79 86.6593C150.338 87.1666 151.031 87.4202 151.862 87.4202C152.778 87.4202 153.549 87.082 154.163 86.3996L154.681 86.768C154.356 87.1606 153.946 87.4625 153.459 87.6799C152.971 87.8973 152.422 88 151.82 88C150.676 88 149.772 87.6376 149.109 86.919C148.555 86.3091 148.278 85.5723 148.278 84.7087C148.278 83.8029 148.616 83.036 149.29 82.42C149.965 81.798 150.808 81.49 151.82 81.49C152.435 81.49 152.983 81.6047 153.477 81.8342C153.965 82.0637 154.368 82.3838 154.687 82.8004Z" fill="#201600"/>
<path d="M155.35 82.2576V81.6537H158.94V82.2576H157.476V87.8496H156.808V82.2576H155.35Z" fill="#201600"/>
<path d="M159.904 81.6476H161.199C161.717 81.6476 162.121 81.708 162.398 81.8227C162.675 81.9374 162.898 82.1186 163.06 82.3602C163.223 82.6017 163.301 82.8674 163.301 83.1634C163.301 83.4411 163.229 83.6887 163.09 83.9182C162.946 84.1417 162.741 84.3289 162.464 84.4678C162.807 84.5765 163.066 84.7033 163.253 84.8543C163.44 85.0052 163.578 85.1804 163.681 85.3917C163.783 85.6031 163.831 85.8265 163.831 86.0741C163.831 86.5693 163.638 86.992 163.253 87.3363C162.867 87.6805 162.349 87.8496 161.705 87.8496H159.904V81.6476ZM160.542 82.2575V84.2443H160.916C161.374 84.2443 161.705 84.2021 161.922 84.1236C162.139 84.045 162.307 83.9182 162.434 83.7431C162.56 83.568 162.62 83.3808 162.62 83.1694C162.62 82.8856 162.518 82.6621 162.307 82.4991C162.096 82.336 161.765 82.2575 161.307 82.2575H160.542ZM160.542 84.8663V87.2457H161.355C161.837 87.2457 162.187 87.2034 162.41 87.1128C162.633 87.0222 162.813 86.8833 162.946 86.6961C163.078 86.5089 163.151 86.3036 163.151 86.0862C163.151 85.8084 163.054 85.5729 162.867 85.3676C162.675 85.1622 162.416 85.0234 162.084 84.9448C161.861 84.8965 161.47 84.8663 160.922 84.8663H160.542Z" fill="#201600"/>
<path d="M168.246 81.49C169.24 81.49 170.072 81.804 170.74 82.4321C171.409 83.0601 171.746 83.8271 171.746 84.745C171.746 85.6508 171.415 86.4238 170.746 87.0519C170.078 87.6799 169.264 88 168.307 88C167.337 88 166.512 87.6859 165.843 87.0579C165.174 86.4298 164.837 85.6689 164.837 84.7752C164.837 84.1773 164.988 83.6278 165.295 83.1205C165.602 82.6132 166.018 82.2147 166.542 81.9248C167.066 81.6349 167.632 81.49 168.246 81.49ZM168.277 82.0939C167.789 82.0939 167.331 82.2147 166.897 82.4502C166.463 82.6917 166.126 83.0118 165.879 83.4164C165.632 83.821 165.512 84.2739 165.512 84.7691C165.512 85.5059 165.783 86.1279 166.319 86.6352C166.861 87.1424 167.512 87.3961 168.271 87.3961C168.777 87.3961 169.252 87.2813 169.68 87.0458C170.114 86.8103 170.451 86.4963 170.692 86.0917C170.933 85.6871 171.053 85.2341 171.053 84.745C171.053 84.2558 170.933 83.8089 170.692 83.4104C170.451 83.0118 170.108 82.6917 169.668 82.4562C169.234 82.2147 168.764 82.0939 168.277 82.0939Z" fill="#201600"/>
<path d="M71.5069 68.3251L73.8621 69.5631C73.0911 71.0849 72.1996 72.3108 71.1876 73.2408C70.1757 74.1708 69.0372 74.8834 67.7782 75.3665C66.5133 75.8557 65.0857 76.0972 63.4894 76.0972C59.9535 76.0972 57.1826 74.9378 55.1888 72.6067C53.195 70.2817 52.1951 67.6548 52.1951 64.7199C52.1951 61.9601 53.0384 59.5022 54.731 57.3463C56.8754 54.5986 59.7367 53.2278 63.3328 53.2278C67.0313 53.2278 69.9829 54.6349 72.1936 57.443C73.7657 59.4298 74.5609 61.9057 74.591 64.8769H55.0744C55.1286 67.4012 55.9297 69.4725 57.4899 71.091C59.05 72.7094 60.9715 73.5126 63.2605 73.5126C64.3628 73.5126 65.4411 73.3193 66.4832 72.9328C67.5252 72.5463 68.4167 72.0391 69.1456 71.3989C69.8624 70.7769 70.6575 69.7503 71.5069 68.3251ZM71.5069 62.4734C71.1334 60.9818 70.5913 59.7861 69.8805 58.8983C69.1697 58.0046 68.224 57.2859 67.0554 56.7424C65.8868 56.1989 64.652 55.9211 63.3629 55.9211C61.2305 55.9211 59.4054 56.6096 57.8754 57.9804C56.755 58.9769 55.9117 60.4805 55.3394 62.4794H71.5069V62.4734Z" fill="#201600"/>
<path d="M78.7232 53.7955H81.5724V56.972C82.4217 55.7219 83.3192 54.7859 84.2649 54.1639C85.2107 53.5419 86.1925 53.2339 87.2165 53.2339C87.9876 53.2339 88.8128 53.4815 89.6862 53.9706L88.2285 56.3319C87.6442 56.0782 87.1503 55.9514 86.7527 55.9514C85.8251 55.9514 84.9275 56.3319 84.0601 57.0988C83.1988 57.8658 82.5362 59.0554 82.0844 60.6678C81.741 61.9058 81.5664 64.412 81.5664 68.1803V75.5357H78.7172V53.7955H78.7232Z" fill="#201600"/>
<path d="M94.493 45.7214H97.2819V53.7955H101.709V56.2111H97.2819V75.5417H94.493V56.2171H90.686V53.8015H94.493V45.7214Z" fill="#201600"/>
<path d="M106.866 44.8397C107.498 44.8397 108.046 45.0692 108.492 45.5221C108.944 45.975 109.167 46.5185 109.167 47.1587C109.167 47.7867 108.944 48.3242 108.492 48.7771C108.04 49.23 107.498 49.4595 106.866 49.4595C106.245 49.4595 105.709 49.23 105.257 48.7771C104.806 48.3242 104.583 47.7867 104.583 47.1587C104.583 46.5185 104.806 45.975 105.257 45.5221C105.709 45.0692 106.245 44.8397 106.866 44.8397ZM105.48 53.7955H108.269V75.5417H105.48V53.7955Z" fill="#201600"/>
<path d="M135.129 58.3126L132.918 59.6895C131.008 57.1471 128.4 55.8729 125.093 55.8729C122.449 55.8729 120.256 56.7244 118.509 58.4274C116.762 60.1304 115.889 62.2017 115.889 64.6354C115.889 66.2176 116.293 67.7092 117.094 69.1102C117.895 70.5052 118.997 71.5922 120.401 72.3652C121.804 73.1382 123.37 73.5247 125.111 73.5247C128.298 73.5247 130.9 72.2505 132.918 69.7081L135.129 71.1695C134.092 72.7336 132.701 73.9474 130.954 74.811C129.207 75.6746 127.213 76.1033 124.985 76.1033C121.557 76.1033 118.714 75.0103 116.449 72.8242C114.19 70.6381 113.058 67.981 113.058 64.8468C113.058 62.7392 113.588 60.7886 114.642 58.983C115.696 57.1773 117.148 55.7702 118.997 54.7557C120.846 53.7412 122.913 53.2339 125.196 53.2339C126.629 53.2339 128.015 53.4513 129.352 53.8921C130.689 54.333 131.822 54.9067 132.749 55.6132C133.683 56.3198 134.478 57.2196 135.129 58.3126Z" fill="#201600"/>
<path d="M162.102 53.7955V75.5417H159.35V71.8036C158.181 73.2288 156.868 74.3037 155.41 75.0224C153.952 75.741 152.362 76.1033 150.633 76.1033C147.561 76.1033 144.941 74.9861 142.766 72.7578C140.592 70.5234 139.508 67.8119 139.508 64.6112C139.508 61.477 140.604 58.8018 142.797 56.5734C144.989 54.3511 147.628 53.2339 150.712 53.2339C152.495 53.2339 154.103 53.6143 155.549 54.3752C156.988 55.1362 158.259 56.2715 159.35 57.7933V53.7955H162.102ZM150.947 55.9333C149.392 55.9333 147.959 56.3137 146.646 57.0807C145.333 57.8476 144.284 58.9226 143.507 60.3055C142.73 61.6884 142.345 63.1559 142.345 64.6958C142.345 66.2297 142.736 67.6911 143.519 69.0861C144.303 70.4811 145.357 71.5741 146.676 72.3532C147.995 73.1322 149.417 73.5187 150.929 73.5187C152.453 73.5187 153.904 73.1322 155.272 72.3592C156.639 71.5862 157.693 70.5415 158.428 69.225C159.163 67.9085 159.53 66.4229 159.53 64.7743C159.53 62.2561 158.705 60.1545 157.049 58.4636C155.398 56.7787 153.362 55.9333 150.947 55.9333Z" fill="#201600"/>
<path d="M167.964 45.4014H170.753V75.5417H167.964V45.4014Z" fill="#201600"/>
<path d="M49.6291 27.941H1.39172V75.8359H49.6291V27.941Z" stroke="#201600" stroke-width="2" stroke-miterlimit="22.9256"/>
<path fill-rule="evenodd" clip-rule="evenodd" d="M9.69224 69.5509C9.56574 68.7719 3.62643 51.8145 3.62643 51.8145C3.62643 51.8145 1.94583 48.324 5.1745 46.5123C8.40318 44.7007 9.56574 43.7948 9.56574 43.7948C9.56574 43.7948 13.0534 42.3696 14.216 45.22C15.3786 48.0704 18.4747 54.6709 18.4747 54.6709C18.4747 54.6709 19.3783 56.8691 21.4444 54.6709C23.5105 52.4667 51.8999 10.176 58.7127 4.05254C65.5194 -2.07095 70.7178 0.465407 70.9949 0.821704C71.266 1.178 71.1334 1.84229 71.1334 1.84229L64.5134 9.96466L46.6232 34.7726L22.8599 69.0315C22.8599 69.0315 21.4383 71.1029 18.6012 71.3626C15.7581 71.6223 12.9209 71.4894 12.9209 71.4894C12.9209 71.4894 10.4693 71.6223 9.69224 69.5509Z" fill="#B9261A"/>
</svg>
