<svg width="172" height="88" viewBox="0 0 172 88" fill="none" xmlns="http://www.w3.org/2000/svg">
<path d="M1 81.6494H5.64423V87.8514H4.98765V82.2412H1.65055V87.8514H1V81.6494Z" fill="white"/>
<path d="M7.2347 81.6476H8.54183C9.28877 81.6476 9.79475 81.6778 10.0538 81.7382C10.4272 81.8227 10.7344 82.0039 10.9694 82.2756C11.2043 82.5474 11.3248 82.8856 11.3248 83.2962C11.3248 83.7069 11.2103 84.0511 10.9754 84.3168C10.7465 84.5825 10.4272 84.7637 10.0176 84.8603C9.72247 84.9267 9.16227 84.963 8.34908 84.963H7.87923V87.8435H7.22266V81.6476H7.2347ZM7.89128 82.2575V84.3591L8.99963 84.3711C9.44538 84.3711 9.77668 84.3349 9.98148 84.2564C10.1923 84.1779 10.355 84.0571 10.4694 83.882C10.5899 83.7069 10.6501 83.5196 10.6501 83.3022C10.6501 83.0969 10.5899 82.9037 10.4694 82.7346C10.3489 82.5595 10.1923 82.4387 9.99956 82.3662C9.8068 82.2937 9.48755 82.2575 9.0418 82.2575H7.89128Z" fill="white"/>
<path d="M15.758 81.49C16.7519 81.49 17.5832 81.804 18.2518 82.4321C18.9204 83.0601 19.2578 83.8271 19.2578 84.745C19.2578 85.6508 18.9264 86.4238 18.2578 87.0519C17.5892 87.6799 16.776 88 15.8183 88C14.8484 88 14.0232 87.6859 13.3546 87.0579C12.686 86.4298 12.3486 85.6689 12.3486 84.7752C12.3486 84.1773 12.4992 83.6278 12.8064 83.1205C13.1136 82.6132 13.5293 82.2147 14.0533 81.9248C14.5774 81.6349 15.1496 81.49 15.758 81.49ZM15.7881 82.0939C15.3002 82.0939 14.8424 82.2147 14.4087 82.4502C13.975 82.6917 13.6377 83.0118 13.3907 83.4164C13.1498 83.821 13.0233 84.2739 13.0233 84.7691C13.0233 85.5059 13.2943 86.1279 13.8304 86.6352C14.3726 87.1424 15.0231 87.3961 15.7821 87.3961C16.2881 87.3961 16.764 87.2813 17.1916 87.0458C17.6253 86.8103 17.9627 86.4963 18.2036 86.0917C18.4446 85.6871 18.565 85.2341 18.565 84.745C18.565 84.2558 18.4446 83.8089 18.2036 83.4104C17.9627 83.0118 17.6193 82.6917 17.1796 82.4562C16.7519 82.2147 16.2821 82.0939 15.7881 82.0939Z" fill="white"/>
<path d="M20.5767 81.6476H24.3354V82.2515H21.2332V84.196H24.3053V84.7999H21.2332V87.2336H24.3053V87.8375H20.5767V81.6476Z" fill="white"/>
<path d="M25.4621 81.6476H26.1307V83.9726L28.751 81.6476H29.6305L26.4801 84.4255L29.8714 87.8435H28.998L26.1247 84.9569V87.8435H25.4561V81.6476H25.4621Z" fill="white"/>
<path d="M30.2026 82.2576V81.6537H33.7928V82.2576H32.329V87.8496H31.6604V82.2576H30.2026Z" fill="white"/>
<path d="M39.8947 87.8496H39.214V83.097L34.8951 87.8496H34.7505V81.6537H35.4071V86.4848L39.7561 81.6537H39.9007V87.8496H39.8947Z" fill="white"/>
<path d="M41.4849 81.6476H42.786C43.5329 81.6476 44.0389 81.6778 44.2979 81.7382C44.6714 81.8227 44.9786 82.0039 45.2135 82.2756C45.4484 82.5474 45.5689 82.8856 45.5689 83.2962C45.5689 83.7069 45.4545 84.0511 45.2195 84.3168C44.9906 84.5825 44.6714 84.7637 44.2618 84.8603C43.9666 84.9267 43.4064 84.963 42.5932 84.963H42.1234V87.8435H41.4668V81.6476H41.4849ZM42.1354 82.2575V84.3591L43.2438 84.3711C43.6895 84.3711 44.0208 84.3349 44.2256 84.2564C44.4365 84.1779 44.5991 84.0571 44.7135 83.882C44.834 83.7069 44.8943 83.5196 44.8943 83.3022C44.8943 83.0969 44.834 82.9037 44.7135 82.7346C44.5931 82.5595 44.4365 82.4387 44.2437 82.3662C44.0509 82.2937 43.7317 82.2575 43.2859 82.2575H42.1354Z" fill="white"/>
<path d="M50.0085 81.49C51.0024 81.49 51.8337 81.804 52.5023 82.4321C53.1709 83.0601 53.5082 83.8271 53.5082 84.745C53.5082 85.6508 53.1769 86.4238 52.5083 87.0519C51.8397 87.6799 51.0265 88 50.0687 88C49.0989 88 48.2737 87.6859 47.6051 87.0579C46.9364 86.4298 46.5991 85.6689 46.5991 84.7752C46.5991 84.1773 46.7497 83.6278 47.0569 83.1205C47.3641 82.6132 47.7798 82.2147 48.3038 81.9248C48.8279 81.6349 49.3941 81.49 50.0085 81.49ZM50.0386 82.0939C49.5507 82.0939 49.0929 82.2147 48.6592 82.4502C48.2255 82.6917 47.8882 83.0118 47.6412 83.4164C47.4003 83.821 47.2738 84.2739 47.2738 84.7691C47.2738 85.5059 47.5448 86.1279 48.0809 86.6352C48.6231 87.1424 49.2736 87.3961 50.0326 87.3961C50.5386 87.3961 51.0145 87.2813 51.4421 87.0458C51.8758 86.8103 52.2132 86.4963 52.4541 86.0917C52.6951 85.6871 52.8155 85.2341 52.8155 84.745C52.8155 84.2558 52.6951 83.8089 52.4541 83.4104C52.2132 83.0118 51.8698 82.6917 51.4301 82.4562C50.9964 82.2147 50.5326 82.0939 50.0386 82.0939Z" fill="white"/>
<path d="M54.8335 81.6476H56.1226C56.6406 81.6476 57.0442 81.708 57.3213 81.8227C57.5983 81.9374 57.8212 82.1186 57.9839 82.3602C58.1465 82.6017 58.2248 82.8674 58.2248 83.1634C58.2248 83.4411 58.1525 83.6887 58.014 83.9182C57.8694 84.1417 57.6646 84.3289 57.3875 84.4678C57.7309 84.5765 57.9899 84.7033 58.1766 84.8543C58.3573 84.9992 58.5019 85.1804 58.6043 85.3917C58.7067 85.6031 58.7549 85.8265 58.7549 86.0741C58.7549 86.5693 58.5621 86.992 58.1766 87.3363C57.7911 87.6805 57.2731 87.8496 56.6285 87.8496H54.8335V81.6476ZM55.478 82.2575V84.2443H55.8515C56.3093 84.2443 56.6406 84.2021 56.8574 84.1236C57.0743 84.045 57.243 83.9182 57.3694 83.7431C57.4959 83.568 57.5562 83.3808 57.5562 83.1694C57.5562 82.8856 57.4538 82.6621 57.243 82.4991C57.0321 82.336 56.7008 82.2575 56.243 82.2575H55.478ZM55.478 84.8663V87.2457H56.2912C56.7731 87.2457 57.1225 87.2034 57.3454 87.1128C57.5682 87.0222 57.7489 86.8833 57.8815 86.6961C58.014 86.5089 58.0863 86.3036 58.0863 86.0862C58.0863 85.8084 57.9899 85.5729 57.8032 85.3676C57.6104 85.1622 57.3514 85.0234 57.0201 84.9448C56.7972 84.8965 56.4057 84.8663 55.8575 84.8663H55.478Z" fill="white"/>
<path d="M62.7362 81.6476L65.7902 87.8435H65.0854L64.0553 85.8024H61.2303L60.2123 87.8435H59.4834L62.5796 81.6476H62.7362ZM62.6518 82.9641L61.5314 85.2106H63.7722L62.6518 82.9641Z" fill="white"/>
<path d="M66.7964 81.6476H67.453V84.2443H70.7901V81.6476H71.4466V87.8496H70.7901V84.8603H67.453V87.8496H66.7964V81.6476Z" fill="white"/>
<path d="M78.193 87.8496H77.5123V83.097L73.1934 87.8496H73.0488V81.6537H73.7054V86.4848L78.0545 81.6537H78.199V87.8496H78.193Z" fill="white"/>
<path d="M79.7954 81.6476H83.5542V82.2515H80.452V84.196H83.5241V84.7999H80.452V87.2336H83.5241V87.8375H79.7954V81.6476Z" fill="white"/>
<path d="M92.3605 87.8496H91.6799V83.097L87.3609 87.8496H87.2163V81.6537H87.8729V86.4848L92.222 81.6537H92.3666V87.8496H92.3605Z" fill="white"/>
<path d="M102.589 82.8004L102.071 83.1749C101.788 82.8246 101.444 82.5589 101.047 82.3777C100.649 82.1966 100.21 82.106 99.7276 82.106C99.2036 82.106 98.7217 82.2267 98.2759 82.4623C97.8302 82.6978 97.4868 83.0178 97.2398 83.4164C96.9929 83.815 96.8724 84.2679 96.8724 84.7691C96.8724 85.524 97.1435 86.1581 97.6916 86.6593C98.2398 87.1666 98.9325 87.4202 99.7638 87.4202C100.679 87.4202 101.45 87.082 102.065 86.3996L102.583 86.768C102.258 87.1606 101.848 87.4625 101.36 87.6799C100.872 87.8973 100.324 88 99.7216 88C98.5771 88 97.6736 87.6376 97.0109 86.919C96.4568 86.3091 96.1797 85.5723 96.1797 84.7087C96.1797 83.8029 96.517 83.036 97.1917 82.42C97.8663 81.798 98.7096 81.49 99.7216 81.49C100.336 81.49 100.884 81.6047 101.378 81.8342C101.872 82.0637 102.276 82.3838 102.589 82.8004Z" fill="white"/>
<path d="M103.251 82.2576V81.6537H106.842V82.2576H105.378V87.8496H104.709V82.2576H103.251Z" fill="white"/>
<path d="M107.781 81.6476H109.088C109.835 81.6476 110.341 81.6778 110.6 81.7382C110.974 81.8227 111.281 82.0039 111.516 82.2756C111.751 82.5474 111.871 82.8856 111.871 83.2962C111.871 83.7069 111.757 84.0511 111.522 84.3168C111.293 84.5825 110.974 84.7637 110.564 84.8603C110.269 84.9267 109.709 84.963 108.896 84.963H108.426V87.8435H107.781V81.6476ZM108.438 82.2575V84.3591L109.546 84.3711C109.992 84.3711 110.323 84.3349 110.528 84.2564C110.739 84.1779 110.901 84.0571 111.016 83.882C111.136 83.7069 111.197 83.5196 111.197 83.3022C111.197 83.0969 111.136 82.9037 111.016 82.7346C110.895 82.5595 110.739 82.4387 110.546 82.3662C110.353 82.2937 110.034 82.2575 109.588 82.2575H108.438Z" fill="white"/>
<path d="M116.311 81.49C117.305 81.49 118.136 81.804 118.805 82.4321C119.473 83.0601 119.811 83.8271 119.811 84.745C119.811 85.6508 119.479 86.4238 118.811 87.0519C118.142 87.6799 117.329 88 116.371 88C115.401 88 114.576 87.6859 113.907 87.0579C113.239 86.4298 112.901 85.6689 112.901 84.7752C112.901 84.1773 113.052 83.6278 113.359 83.1205C113.666 82.6132 114.082 82.2147 114.606 81.9248C115.13 81.6349 115.696 81.49 116.311 81.49ZM116.335 82.0939C115.847 82.0939 115.389 82.2147 114.955 82.4502C114.522 82.6917 114.184 83.0118 113.937 83.4164C113.69 83.821 113.57 84.2739 113.57 84.7691C113.57 85.5059 113.841 86.1279 114.377 86.6352C114.919 87.1424 115.57 87.3961 116.329 87.3961C116.835 87.3961 117.311 87.2813 117.738 87.0458C118.172 86.8103 118.509 86.4963 118.75 86.0917C118.991 85.6871 119.112 85.2341 119.112 84.745C119.112 84.2558 118.991 83.8089 118.75 83.4104C118.509 83.0118 118.166 82.6917 117.726 82.4562C117.299 82.2147 116.829 82.0939 116.335 82.0939Z" fill="white"/>
<path d="M126.274 87.8496H125.593V83.097L121.274 87.8496H121.129V81.6537H121.786V86.4848L126.135 81.6537H126.28V87.8496H126.274Z" fill="white"/>
<path d="M127.219 82.2576V81.6537H130.809V82.2576H129.346V87.8496H128.677V82.2576H127.219Z" fill="white"/>
<path d="M131.755 81.6476H135.514V82.2515H132.412V84.196H135.484V84.7999H132.412V87.2336H135.484V87.8375H131.755V81.6476Z" fill="white"/>
<path d="M141.953 87.8496H141.242L139.068 83.0608L136.863 87.8496H136.152L139.002 81.6537H139.146L141.953 87.8496Z" fill="white"/>
<path d="M143.05 81.6476H143.706V84.3047H144.176C145.032 84.3047 145.652 84.347 146.025 84.4255C146.399 84.504 146.7 84.6852 146.929 84.969C147.158 85.2528 147.272 85.6152 147.272 86.062C147.272 86.5029 147.164 86.8652 146.941 87.1491C146.718 87.4389 146.435 87.6261 146.092 87.7107C145.748 87.8013 145.17 87.8435 144.357 87.8435H143.05V81.6476ZM143.7 87.2457H144.399C145.134 87.2457 145.616 87.2155 145.839 87.1491C146.062 87.0826 146.242 86.9618 146.375 86.7807C146.507 86.5995 146.574 86.37 146.574 86.0922C146.574 85.7843 146.489 85.5306 146.327 85.3374C146.158 85.1441 145.947 85.0233 145.694 84.9811C145.435 84.9388 144.959 84.9146 144.255 84.9146H143.7V87.2457Z" fill="white"/>
<path d="M154.688 82.8004L154.169 83.1749C153.886 82.8246 153.543 82.5589 153.145 82.3777C152.748 82.1966 152.308 82.106 151.826 82.106C151.302 82.106 150.82 82.2267 150.375 82.4623C149.929 82.6978 149.585 83.0178 149.338 83.4164C149.092 83.815 148.971 84.2679 148.971 84.7691C148.971 85.524 149.242 86.1581 149.79 86.6593C150.338 87.1666 151.031 87.4202 151.862 87.4202C152.778 87.4202 153.549 87.082 154.163 86.3996L154.681 86.768C154.356 87.1606 153.947 87.4625 153.459 87.6799C152.971 87.8973 152.423 88 151.82 88C150.676 88 149.772 87.6376 149.11 86.919C148.555 86.3091 148.278 85.5723 148.278 84.7087C148.278 83.8029 148.616 83.036 149.29 82.42C149.965 81.798 150.808 81.49 151.82 81.49C152.435 81.49 152.983 81.6047 153.477 81.8342C153.965 82.0637 154.368 82.3838 154.688 82.8004Z" fill="white"/>
<path d="M155.35 82.2576V81.6537H158.94V82.2576H157.476V87.8496H156.807V82.2576H155.35Z" fill="white"/>
<path d="M159.904 81.6476H161.199C161.717 81.6476 162.121 81.708 162.398 81.8227C162.675 81.9374 162.898 82.1186 163.06 82.3602C163.223 82.6017 163.301 82.8674 163.301 83.1634C163.301 83.4411 163.229 83.6887 163.09 83.9182C162.946 84.1417 162.741 84.3289 162.464 84.4678C162.807 84.5765 163.066 84.7033 163.253 84.8543C163.44 85.0052 163.578 85.1804 163.681 85.3917C163.783 85.6031 163.831 85.8265 163.831 86.0741C163.831 86.5693 163.638 86.992 163.253 87.3363C162.867 87.6805 162.349 87.8496 161.705 87.8496H159.904V81.6476ZM160.542 82.2575V84.2443H160.916C161.374 84.2443 161.705 84.2021 161.922 84.1236C162.139 84.045 162.307 83.9182 162.434 83.7431C162.56 83.568 162.62 83.3808 162.62 83.1694C162.62 82.8856 162.518 82.6621 162.307 82.4991C162.096 82.336 161.765 82.2575 161.307 82.2575H160.542ZM160.542 84.8663V87.2457H161.355C161.837 87.2457 162.187 87.2034 162.41 87.1128C162.633 87.0222 162.813 86.8833 162.946 86.6961C163.078 86.5089 163.151 86.3036 163.151 86.0862C163.151 85.8084 163.054 85.5729 162.867 85.3676C162.675 85.1622 162.416 85.0234 162.084 84.9448C161.861 84.8965 161.47 84.8663 160.922 84.8663H160.542Z" fill="white"/>
<path d="M168.246 81.49C169.24 81.49 170.071 81.804 170.74 82.4321C171.409 83.0601 171.746 83.8271 171.746 84.745C171.746 85.6508 171.415 86.4238 170.746 87.0519C170.077 87.6799 169.264 88 168.307 88C167.337 88 166.511 87.6859 165.843 87.0579C165.174 86.4298 164.837 85.6689 164.837 84.7752C164.837 84.1773 164.988 83.6278 165.295 83.1205C165.602 82.6132 166.018 82.2147 166.542 81.9248C167.066 81.6349 167.632 81.49 168.246 81.49ZM168.276 82.0939C167.789 82.0939 167.331 82.2147 166.897 82.4502C166.463 82.6917 166.126 83.0118 165.879 83.4164C165.632 83.821 165.512 84.2739 165.512 84.7691C165.512 85.5059 165.783 86.1279 166.319 86.6352C166.861 87.1424 167.511 87.3961 168.27 87.3961C168.776 87.3961 169.252 87.2813 169.68 87.0458C170.114 86.8103 170.451 86.4963 170.692 86.0917C170.933 85.6871 171.053 85.2341 171.053 84.745C171.053 84.2558 170.933 83.8089 170.692 83.4104C170.451 83.0118 170.108 82.6917 169.668 82.4562C169.234 82.2147 168.764 82.0939 168.276 82.0939Z" fill="white"/>
<path d="M71.5071 68.3251L73.8624 69.5631C73.0913 71.0849 72.1998 72.3108 71.1879 73.2408C70.1759 74.1708 69.0374 74.8834 67.7785 75.3665C66.5135 75.8557 65.0859 76.0972 63.4896 76.0972C59.9538 76.0972 57.1829 74.9378 55.1891 72.6067C53.1952 70.2817 52.1953 67.6548 52.1953 64.7199C52.1953 61.9601 53.0386 59.5022 54.7313 57.3463C56.8757 54.5986 59.7369 53.2278 63.333 53.2278C67.0316 53.2278 69.9831 54.6349 72.1938 57.443C73.766 59.4298 74.5611 61.9057 74.5912 64.8769H55.0746C55.1288 67.4012 55.93 69.4725 57.4901 71.091C59.0502 72.7094 60.9718 73.5126 63.2608 73.5126C64.3631 73.5126 65.4413 73.3193 66.4834 72.9328C67.5255 72.5463 68.417 72.0391 69.1459 71.3989C69.8627 70.7769 70.6578 69.7503 71.5071 68.3251ZM71.5071 62.4734C71.1337 60.9818 70.5915 59.7861 69.8807 58.8983C69.17 58.0046 68.2242 57.2859 67.0556 56.7424C65.8871 56.1989 64.6522 55.9211 63.3632 55.9211C61.2308 55.9211 59.4056 56.6096 57.8756 57.9804C56.7552 58.9769 55.9119 60.4805 55.3397 62.4794H71.5071V62.4734Z" fill="white"/>
<path d="M78.7233 53.7955H81.5725V56.972C82.4218 55.7219 83.3193 54.7859 84.2651 54.1639C85.2108 53.5419 86.1926 53.2339 87.2166 53.2339C87.9877 53.2339 88.8129 53.4815 89.6863 53.9706L88.2286 56.3319C87.6443 56.0782 87.1504 55.9514 86.7528 55.9514C85.8252 55.9514 84.9277 56.3319 84.0603 57.0988C83.1989 57.8658 82.5363 59.0554 82.0845 60.6678C81.7412 61.9058 81.5665 64.412 81.5665 68.1803V75.5357H78.7173V53.7955H78.7233Z" fill="white"/>
<path d="M94.4935 45.7214H97.2824V53.7955H101.71V56.2111H97.2824V75.5417H94.4935V56.2171H90.6865V53.8015H94.4935V45.7214Z" fill="white"/>
<path d="M106.866 44.8397C107.498 44.8397 108.047 45.0692 108.492 45.5221C108.944 45.975 109.167 46.5185 109.167 47.1587C109.167 47.7867 108.944 48.3242 108.492 48.7771C108.041 49.23 107.498 49.4595 106.866 49.4595C106.246 49.4595 105.709 49.23 105.258 48.7771C104.806 48.3242 104.583 47.7867 104.583 47.1587C104.583 46.5185 104.806 45.975 105.258 45.5221C105.709 45.0692 106.246 44.8397 106.866 44.8397ZM105.481 53.7955H108.269V75.5417H105.481V53.7955Z" fill="white"/>
<path d="M135.129 58.3126L132.918 59.6895C131.009 57.1471 128.4 55.8729 125.093 55.8729C122.449 55.8729 120.256 56.7244 118.51 58.4274C116.763 60.1304 115.889 62.2017 115.889 64.6354C115.889 66.2176 116.293 67.7092 117.094 69.1102C117.895 70.5052 118.997 71.5922 120.401 72.3652C121.804 73.1382 123.371 73.5247 125.111 73.5247C128.298 73.5247 130.9 72.2505 132.918 69.7081L135.129 71.1695C134.093 72.7336 132.701 73.9474 130.954 74.811C129.208 75.6746 127.214 76.1033 124.985 76.1033C121.558 76.1033 118.714 75.0103 116.449 72.8242C114.191 70.6381 113.058 67.981 113.058 64.8468C113.058 62.7392 113.588 60.7886 114.642 58.983C115.696 57.1773 117.148 55.7702 118.997 54.7557C120.847 53.7412 122.913 53.2339 125.196 53.2339C126.629 53.2339 128.015 53.4513 129.352 53.8921C130.689 54.333 131.822 54.9067 132.749 55.6132C133.683 56.3198 134.478 57.2196 135.129 58.3126Z" fill="white"/>
<path d="M162.102 53.7955V75.5417H159.35V71.8036C158.181 73.2288 156.868 74.3037 155.41 75.0224C153.953 75.741 152.362 76.1033 150.633 76.1033C147.561 76.1033 144.941 74.9861 142.767 72.7578C140.592 70.5234 139.508 67.8119 139.508 64.6112C139.508 61.477 140.604 58.8018 142.797 56.5734C144.989 54.3511 147.628 53.2339 150.712 53.2339C152.495 53.2339 154.103 53.6143 155.549 54.3752C156.988 55.1362 158.259 56.2715 159.35 57.7933V53.7955H162.102ZM150.947 55.9333C149.393 55.9333 147.959 56.3137 146.646 57.0807C145.333 57.8476 144.285 58.9226 143.508 60.3055C142.73 61.6884 142.345 63.1559 142.345 64.6958C142.345 66.2297 142.736 67.6911 143.52 69.0861C144.303 70.4811 145.357 71.5741 146.676 72.3532C147.995 73.1322 149.417 73.5187 150.929 73.5187C152.453 73.5187 153.904 73.1322 155.272 72.3592C156.639 71.5862 157.693 70.5415 158.428 69.225C159.163 67.9085 159.53 66.4229 159.53 64.7743C159.53 62.2561 158.705 60.1545 157.049 58.4636C155.398 56.7787 153.362 55.9333 150.947 55.9333Z" fill="white"/>
<path d="M167.964 45.4014H170.753V75.5417H167.964V45.4014Z" fill="white"/>
<path d="M49.6289 27.941H1.3916V75.8359H49.6289V27.941Z" stroke="white" stroke-width="2" stroke-miterlimit="22.9256"/>
<path fill-rule="evenodd" clip-rule="evenodd" d="M9.69199 69.5509C9.5655 68.7719 3.62618 51.8145 3.62618 51.8145C3.62618 51.8145 1.94558 48.324 5.17426 46.5123C8.40293 44.7007 9.5655 43.7948 9.5655 43.7948C9.5655 43.7948 13.0532 42.3696 14.2158 45.22C15.3783 48.0704 18.4745 54.6709 18.4745 54.6709C18.4745 54.6709 19.378 56.8691 21.4441 54.6709C23.5102 52.4667 51.8997 10.176 58.7124 4.05254C65.5191 -2.07095 70.7176 0.465407 70.9947 0.821704C71.2657 1.178 71.1332 1.84229 71.1332 1.84229L64.5132 9.96466L46.623 34.7726L22.8597 69.0315C22.8597 69.0315 21.4381 71.1029 18.601 71.3626C15.7578 71.6223 12.9207 71.4894 12.9207 71.4894C12.9207 71.4894 10.469 71.6223 9.69199 69.5509Z" fill="#B9261A"/>
</svg>
