<svg width="29" height="23" viewBox="0 0 29 23" fill="none" xmlns="http://www.w3.org/2000/svg">
<path d="M14.2832 4.96007C14.1737 5.06869 14.1134 5.21307 14.1134 5.36661C14.1134 5.52016 14.1736 5.66458 14.2833 5.7732L19.4797 10.9249L2.31999 10.9249C2.00017 10.9249 1.73999 11.1828 1.73999 11.4999C1.73999 11.817 2.00017 12.0749 2.31999 12.0749L19.4797 12.0749L14.2832 17.2267C14.1737 17.3353 14.1134 17.4797 14.1134 17.6333C14.1134 17.7868 14.1736 17.9312 14.2833 18.0398C14.3928 18.1484 14.5384 18.2083 14.6933 18.2083C14.8483 18.2083 14.9939 18.1484 15.1034 18.0398L21.2901 11.9065C21.3712 11.8261 21.4251 11.7262 21.4477 11.6174C21.4479 11.6168 21.4481 11.6162 21.4482 11.6156C21.4515 11.5995 21.4538 11.5832 21.4557 11.5669C21.4561 11.5639 21.4567 11.5611 21.457 11.5582C21.459 11.5389 21.46 11.5195 21.46 11.4999C21.46 11.4803 21.459 11.4608 21.457 11.4416C21.4567 11.4387 21.456 11.4358 21.4557 11.4329C21.4538 11.4165 21.4515 11.4002 21.4482 11.3843C21.4481 11.3837 21.4479 11.3832 21.4478 11.3826C21.4251 11.2738 21.3713 11.1738 21.2901 11.0933L15.1035 4.95998C14.9939 4.85136 14.8483 4.79157 14.6934 4.79157C14.5385 4.79157 14.3928 4.8514 14.2832 4.96007Z" fill="black"/>
</svg>
